<svg width="61" height="50" viewBox="0 0 61 50" fill="none" xmlns="http://www.w3.org/2000/svg">
<path d="M30.1934 48.4512C29.464 48.0014 28.4152 47.3403 27.1445 46.4961L26.5918 47.3281C24.3825 45.8602 21.5097 43.8469 18.4717 41.4385L19.0918 40.6543C16.6228 38.697 14.0503 36.4819 11.6445 34.0918L10.9424 34.7998C8.53189 32.405 6.27979 29.8335 4.4541 27.1621L5.27832 26.5977C3.31472 23.7243 1.8918 20.7868 1.30176 17.8857L0.324216 18.085C-0.340648 14.8163 -0.0207061 11.5361 1.70898 8.36915L2.58398 8.84668C3.1885 7.73997 3.98369 6.63644 4.99804 5.54493L5.44629 5.07813C6.39332 4.12186 7.33785 3.36469 8.2705 2.77637L7.73828 1.93165C10.2274 0.361668 12.715 -0.137612 15.0879 0.0429728L15.0127 1.03711C17.4055 1.21931 19.7137 2.15915 21.7988 3.43067L22.3193 2.5791C24.7478 4.06022 26.8108 5.92663 28.2969 7.46192L27.5801 8.15528C28.3567 8.95756 28.9706 9.66675 29.3887 10.1729C29.5975 10.4256 29.757 10.6276 29.8633 10.7647C29.9163 10.8331 29.9556 10.8856 29.9814 10.9199C29.9941 10.9368 30.0038 10.949 30.0098 10.957C30.0127 10.961 30.0154 10.9642 30.0166 10.9658L30.0176 10.9678L30.0176 10.9668L30.8242 12.0664L31.6299 10.9668L31.6309 10.9648C31.6321 10.9632 31.6348 10.9609 31.6377 10.957C31.6436 10.9491 31.6531 10.9361 31.666 10.9189C31.6919 10.8846 31.7312 10.8321 31.7842 10.7637C31.8903 10.6266 32.0501 10.4248 32.2588 10.1719C32.6766 9.66537 33.2902 8.95523 34.0664 8.15235L33.3496 7.45996C34.8353 5.92331 36.8976 4.05514 39.3262 2.57324L39.8467 3.42481C41.9317 2.15265 44.2401 1.21226 46.6338 1.03125L46.5596 0.0371106C48.9321 -0.142074 51.4202 0.358584 53.9102 1.93066L53.376 2.77539C54.3087 3.3642 55.2529 4.12157 56.2002 5.07813L56.6338 5.53223C57.611 6.59722 58.3473 7.69007 58.8779 8.7998L59.7783 8.37012C61.2381 11.4235 61.3058 14.6798 60.4199 17.9766L59.4541 17.7178C58.7024 20.5147 57.2171 23.384 55.2646 26.2148L56.0859 26.7822C54.2757 29.4068 52.1 31.9609 49.7939 34.3564L49.0742 33.6641C46.7536 36.0747 44.2959 38.3277 41.9463 40.3301L42.5947 41.0908C39.6896 43.5666 36.9571 45.6559 34.8574 47.1875L34.2676 46.3799C33.0539 47.2652 32.0545 47.9627 31.3594 48.4375C31.1406 48.587 30.9514 48.714 30.7959 48.8184C30.6305 48.7185 30.4283 48.5961 30.1934 48.4512Z" stroke="white" stroke-width="2" stroke-dasharray="10 10"/>
</svg>
