<svg width="23" height="22" viewBox="0 0 23 22" fill="none" xmlns="http://www.w3.org/2000/svg">
<path d="M9.71132 9.37412L9.7095 9.37291L9.70817 9.37256L9.70901 9.37207L12.1898 10.4522L12.4929 7.76816C12.493 7.76785 12.4928 7.76539 12.4934 7.76113C12.4945 7.75236 12.4962 7.73537 12.4996 7.71132C12.5063 7.66281 12.518 7.58453 12.5353 7.48211C12.5699 7.27657 12.628 6.97618 12.7161 6.61765C12.8956 5.88729 13.1868 4.97945 13.6336 4.15405C14.0852 3.31989 14.6252 2.69808 15.2408 2.34994C15.7969 2.03558 16.5947 1.83927 17.8468 2.17603C18.685 2.4015 19.2197 2.76924 19.586 3.19037C19.9643 3.62543 20.2518 4.2201 20.4221 5.01363C20.7748 6.65708 20.5614 8.84517 19.9935 11.2049C19.4364 13.5194 18.5911 15.7885 17.8734 17.4976C17.6022 18.1436 17.3497 18.7023 17.1442 19.1466C16.6506 19.1244 16.0314 19.0913 15.3255 19.0318C13.4707 18.8754 11.0702 18.5632 8.7863 17.9516C6.45545 17.3275 4.48466 16.4525 3.27725 15.3159C2.69847 14.7711 2.33073 14.1994 2.14634 13.5895C1.96391 12.9859 1.9228 12.2187 2.19064 11.2151C2.52441 9.96456 3.0931 9.37221 3.6435 9.04792C4.25314 8.68876 5.06241 8.53138 6.0112 8.55711C6.94964 8.58257 7.88145 8.78373 8.60384 8.99301C8.9583 9.09571 9.24752 9.196 9.44292 9.2686C9.54028 9.30478 9.61387 9.33391 9.65926 9.3523C9.68181 9.36144 9.69727 9.36838 9.7055 9.37184C9.70819 9.37297 9.71027 9.37367 9.71132 9.37412Z" stroke="white" stroke-width="4"/>
</svg>
