<svg width="20" height="20" viewBox="0 0 20 20" fill="none" xmlns="http://www.w3.org/2000/svg">
<g clip-path="url(#clip0_6_648)">
<path d="M6.09401 17.4062C5.96901 17.3125 5.81276 17.2188 5.68776 17.1563C5.71901 16.9063 5.68776 16.625 5.62526 16.3438C5.50026 15.875 5.25026 15.4375 4.90651 15.0312C4.59401 15.2812 4.43776 15.7188 4.50026 16.1875C4.28151 15.9688 4.06276 15.75 3.87526 15.5312C4.00026 15.3125 4.06276 15.0312 4.06276 14.75C4.09401 14.2812 4.00026 13.8125 3.78151 13.3438C3.37526 13.5 3.12526 13.9062 3.06276 14.375C2.90651 14.125 2.78151 13.8438 2.65651 13.5938C2.84401 13.4062 3.00026 13.1562 3.09401 12.875C3.25026 12.4375 3.28151 11.9688 3.18776 11.4688C2.75026 11.5313 2.37526 11.8438 2.18776 12.3125C2.09401 12 2.03151 11.7188 2.00026 11.4062C2.25026 11.2812 2.46901 11.0625 2.62526 10.8125C2.87526 10.4375 3.06276 9.96875 3.09401 9.46875C2.62526 9.40625 2.15651 9.65625 1.87526 10.0938C1.87526 9.78125 1.90651 9.4375 1.93776 9.125C2.21901 9.0625 2.50026 8.90625 2.75026 8.71875C3.09401 8.4375 3.37526 8.03125 3.56276 7.5625C3.12526 7.375 2.59401 7.5 2.18776 7.875C2.28151 7.5625 2.37526 7.21875 2.50026 6.90625C2.81276 6.9375 3.12526 6.84375 3.40651 6.71875C3.81276 6.53125 4.18776 6.21875 4.50026 5.78125C4.12526 5.46875 3.56276 5.46875 3.06276 5.75C3.25026 5.4375 3.43776 5.15625 3.65651 4.875C3.93776 5 4.28151 5 4.62526 4.9375C5.09401 4.84375 5.56276 4.65625 6.00026 4.3125C5.71901 3.90625 5.15651 3.75 4.56276 3.90625C5.00026 3.5 5.46901 3.125 6.03151 2.8125C6.18776 2.71875 6.25026 2.53125 6.15651 2.375C6.06276 2.21875 5.84401 2.15625 5.68776 2.25C5.09401 2.59375 4.56276 3 4.09401 3.4375C4.34401 2.8125 4.37526 2.25 4.09401 1.8125C3.53151 2.1875 3.12526 2.8125 3.03151 3.34375C2.93776 3.75 3.00026 4.09375 3.18776 4.375C2.93776 4.6875 2.71901 5.03125 2.53151 5.34375C2.59401 4.6875 2.43776 4.125 2.06276 3.8125C1.62526 4.40625 1.43776 5.09375 1.50026 5.625C1.53151 6.03125 1.68776 6.34375 1.93776 6.5625C1.78151 6.9375 1.65651 7.28125 1.56276 7.65625C1.43776 7.03125 1.15651 6.53125 0.687756 6.3125C0.437756 7 0.437756 7.6875 0.625256 8.1875C0.781506 8.5625 1.00026 8.8125 1.31276 8.96875C1.25026 9.34375 1.25026 9.71875 1.25026 10.0938C0.969006 9.53125 0.562756 9.15625 0.0627564 9.09375C0.000256356 9.8125 0.187756 10.4688 0.500256 10.9063C0.719006 11.2188 1.03151 11.4062 1.34401 11.4688C1.37526 11.8438 1.46901 12.1875 1.53151 12.5312C1.12526 12.0938 0.656506 11.8438 0.156506 11.9062C0.281506 12.625 0.625256 13.2188 1.06276 13.5312C1.34401 13.7812 1.68776 13.875 1.96901 13.8438C2.09401 14.1562 2.25026 14.5 2.40651 14.7812C1.87526 14.5625 1.37526 14.4375 0.937756 14.625C1.25026 15.2812 1.75026 15.7813 2.25026 16C2.59401 16.1562 2.90651 16.1562 3.18776 16.0938C3.40651 16.375 3.62526 16.625 3.87526 16.875C3.34401 16.75 2.87526 16.7812 2.53151 17.0625C3.03151 17.625 3.68776 17.9688 4.25026 18.0625C4.59401 18.125 4.90651 18.0625 5.15651 17.9375C5.28151 18.0312 5.43776 18.125 5.56276 18.2188C5.81276 18.375 6.12526 18.2812 6.25026 18.0312C6.37526 17.8125 6.31276 17.5313 6.09401 17.4062Z" fill="#FFB400"/>
<path d="M18.5324 12.5312C18.6262 12.1875 18.6887 11.8125 18.7199 11.4688C19.0324 11.4062 19.3137 11.2188 19.5637 10.9063C19.8762 10.4688 20.0637 9.8125 20.0012 9.09375C19.5012 9.15625 19.0949 9.5625 18.8137 10.0938C18.8137 9.71875 18.7824 9.34375 18.7512 8.96875C19.0324 8.84375 19.2824 8.5625 19.4387 8.1875C19.6262 7.6875 19.6574 7 19.3762 6.3125C18.9074 6.53125 18.6262 7.03125 18.5012 7.65625C18.4074 7.28125 18.2824 6.90625 18.1262 6.5625C18.3762 6.34375 18.5324 6.03125 18.5637 5.625C18.6262 5.09375 18.4387 4.40625 18.0012 3.8125C17.5949 4.125 17.4699 4.71875 17.5324 5.34375C17.2824 5 17.0637 4.6875 16.8137 4.375C17.0012 4.125 17.0637 3.75 16.9699 3.34375C16.8762 2.8125 16.4699 2.1875 15.8449 1.6875C15.5637 2.09375 15.5949 2.6875 15.8449 3.3125C15.3762 2.875 14.8449 2.46875 14.2512 2.125C14.0949 2.03125 13.8762 2.09375 13.7824 2.25C13.6887 2.40625 13.7512 2.59375 13.9074 2.6875C14.4387 3 14.9387 3.375 15.3762 3.78125C14.7824 3.625 14.2199 3.78125 13.9387 4.1875C14.3762 4.53125 14.8449 4.71875 15.3137 4.8125C15.6574 4.875 16.0012 4.875 16.2824 4.75C16.5012 5.03125 16.7199 5.34375 16.8762 5.625C16.3762 5.34375 15.8137 5.34375 15.4387 5.65625C15.7512 6.0625 16.1262 6.40625 16.5324 6.59375C16.8449 6.75 17.1574 6.8125 17.4387 6.78125C17.5637 7.09375 17.6574 7.40625 17.7512 7.75C17.3449 7.375 16.8137 7.25 16.3762 7.4375C16.5637 7.90625 16.8449 8.3125 17.1887 8.59375C17.4387 8.8125 17.7199 8.9375 18.0012 9C18.0324 9.3125 18.0637 9.65625 18.0637 9.96875C17.7824 9.53125 17.3137 9.28125 16.8449 9.34375C16.9074 9.84375 17.0637 10.3125 17.3137 10.6875C17.4699 10.9375 17.6887 11.1562 17.9387 11.2812C17.8762 11.5938 17.8137 11.875 17.7512 12.1875C17.5637 11.7188 17.2199 11.375 16.7512 11.3438C16.6574 11.8438 16.7199 12.3437 16.8449 12.75C16.9387 13.0312 17.0637 13.2812 17.2824 13.4687C17.1574 13.75 17.0324 14 16.8762 14.25C16.8137 13.7812 16.5637 13.375 16.1574 13.2187C15.9387 13.6875 15.8449 14.1562 15.8762 14.625C15.8762 14.9062 15.9387 15.1875 16.0637 15.4062C15.8762 15.625 15.6574 15.8438 15.4387 16.0625C15.5012 15.5938 15.3762 15.1562 15.0324 14.9062C14.6887 15.3125 14.4387 15.75 14.3137 16.2188C14.2512 16.5 14.2199 16.7812 14.2512 17.0312C14.1262 17.125 14.0012 17.2187 13.8449 17.2812C13.6262 17.4062 13.5637 17.6875 13.6574 17.9062C13.7824 18.1562 14.0949 18.25 14.3449 18.0938C14.5012 18 14.6262 17.9062 14.7512 17.8125C15.0012 17.9375 15.3137 18 15.6574 17.9375C16.2199 17.8438 16.8762 17.5 17.3762 16.9375C17.0324 16.6562 16.5637 16.625 16.0324 16.75C16.2824 16.5 16.5012 16.25 16.7199 15.9687C17.0012 16.0312 17.3137 16 17.6574 15.875C18.1574 15.6562 18.6574 15.1875 18.9699 14.5C18.5324 14.3125 18.0324 14.4375 17.5637 14.7187C17.7199 14.4062 17.8762 14.0937 18.0012 13.7812C18.3137 13.7812 18.6262 13.6875 18.9074 13.4687C19.3137 13.125 19.6887 12.5625 19.8137 11.8438C19.4074 11.8438 18.9387 12.125 18.5324 12.5312Z" fill="#FFB400"/>
<path d="M13.8438 15.4062L13.1875 11.625L15.9375 8.9375C16.0313 8.84375 16.0625 8.71875 16.0312 8.625C16 8.5 15.9063 8.4375 15.7812 8.40625L11.9688 7.84375L10.2813 4.40625C10.2188 4.3125 10.125 4.21875 10 4.21875C9.875 4.21875 9.78125 4.28125 9.71875 4.40625L8.03125 7.84375L4.21875 8.40625C4.09375 8.4375 4 8.5 3.96875 8.625C3.9375 8.75 3.96875 8.875 4.0625 8.9375L6.8125 11.625L6.15625 15.4062C6.125 15.5312 6.1875 15.6562 6.28125 15.7188C6.375 15.7812 6.5 15.8125 6.625 15.75L10 13.9375L13.4062 15.7188C13.4375 15.75 13.5 15.75 13.5625 15.75C13.625 15.75 13.6875 15.7188 13.75 15.6875C13.8125 15.625 13.875 15.5312 13.8438 15.4062Z" fill="#FFB400"/>
</g>
<defs>
<clipPath id="clip0_6_648">
<rect width="20" height="20" fill="white"/>
</clipPath>
</defs>
</svg>
