<svg width="403" height="103" viewBox="0 0 403 103" fill="none" xmlns="http://www.w3.org/2000/svg">
<path d="M16.7974 49.9502H371.514L354.717 102.553H0L16.7974 49.9502Z" fill="white"/>
<path d="M21.2173 45.5298H375.934L359.137 98.1323H4.41992L21.2173 45.5298Z" fill="#1BAB77"/>
<path d="M381.508 45.5298H401.13L385.659 98.1323H366.037L381.508 45.5298Z" fill="#F2C94C"/>
<path d="M241.795 37.1313H400.929" stroke="white" stroke-width="3.53631" stroke-linecap="round"/>
<path d="M389.877 0L392.221 8.70669L400.928 11.051L392.221 13.3952L389.877 22.1019L387.533 13.3952L378.826 11.051L387.533 8.70669L389.877 0Z" fill="white"/>
<path d="M41.216 66.44H48.32V68.392H43.376V70.536H47.008V72.376H43.376V75.048H48.512V77H41.216V66.44ZM59.5239 66.44L54.8199 77.192H54.0999L49.3799 66.44H51.8279L54.4679 72.84L57.0919 66.44H59.5239ZM60.966 66.44H68.07V68.392H63.126V70.536H66.758V72.376H63.126V75.048H68.262V77H60.966V66.44ZM76.6179 77L73.8819 73.272H72.2979V77H70.1379V66.44H74.1059C74.8419 66.44 75.4979 66.584 76.0739 66.872C76.6499 67.1493 77.0979 67.5493 77.4179 68.072C77.7485 68.584 77.9139 69.176 77.9139 69.848C77.9139 70.52 77.7485 71.1173 77.4179 71.64C77.0872 72.1627 76.6339 72.568 76.0579 72.856L79.0499 77H76.6179ZM72.2979 71.368H74.1059C74.6072 71.368 74.9965 71.2293 75.2739 70.952C75.5619 70.6747 75.7059 70.3067 75.7059 69.848C75.7059 69.4 75.5619 69.0373 75.2739 68.76C74.9859 68.4827 74.5965 68.344 74.1059 68.344H72.2979V71.368ZM84.6738 72.84V77H82.5138V72.856L78.8658 66.44H81.2658L83.6018 70.632L85.9218 66.44H88.3058L84.6738 72.84ZM94.3018 77.192C93.2778 77.192 92.3391 76.952 91.4858 76.472C90.6324 75.992 89.9551 75.336 89.4538 74.504C88.9524 73.6613 88.7018 72.7333 88.7018 71.72C88.7018 70.7067 88.9524 69.784 89.4538 68.952C89.9551 68.1093 90.6324 67.448 91.4858 66.968C92.3391 66.488 93.2778 66.248 94.3018 66.248C95.3258 66.248 96.2644 66.488 97.1178 66.968C97.9818 67.448 98.6644 68.1093 99.1658 68.952C99.6778 69.784 99.9338 70.7067 99.9338 71.72C99.9338 72.7333 99.6778 73.6613 99.1658 74.504C98.6644 75.336 97.9818 75.992 97.1178 76.472C96.2644 76.952 95.3258 77.192 94.3018 77.192ZM94.3178 75.192C94.9578 75.192 95.5338 75.048 96.0458 74.76C96.5684 74.4613 96.9738 74.0507 97.2618 73.528C97.5604 72.9947 97.7098 72.392 97.7098 71.72C97.7098 71.0587 97.5604 70.4667 97.2618 69.944C96.9738 69.4107 96.5684 68.9947 96.0458 68.696C95.5338 68.3973 94.9578 68.248 94.3178 68.248C93.6671 68.248 93.0858 68.3973 92.5738 68.696C92.0618 68.984 91.6564 69.3947 91.3578 69.928C91.0698 70.4507 90.9258 71.048 90.9258 71.72C90.9258 72.392 91.0698 72.9947 91.3578 73.528C91.6564 74.0507 92.0618 74.4613 92.5738 74.76C93.0858 75.048 93.6671 75.192 94.3178 75.192ZM110.755 66.44V77.192H110.035L103.923 70.664V77H101.763V66.248H102.467L108.595 72.744V66.44H110.755ZM113.169 66.44H120.273V68.392H115.329V70.536H118.961V72.376H115.329V75.048H120.465V77H113.169V66.44ZM126.825 66.44H128.985V75.048H133.609V77H126.825V66.44ZM139.974 77.192C138.95 77.192 138.011 76.952 137.158 76.472C136.304 75.992 135.627 75.336 135.126 74.504C134.624 73.6613 134.374 72.7333 134.374 71.72C134.374 70.7067 134.624 69.784 135.126 68.952C135.627 68.1093 136.304 67.448 137.158 66.968C138.011 66.488 138.95 66.248 139.974 66.248C140.998 66.248 141.936 66.488 142.79 66.968C143.654 67.448 144.336 68.1093 144.838 68.952C145.35 69.784 145.606 70.7067 145.606 71.72C145.606 72.7333 145.35 73.6613 144.838 74.504C144.336 75.336 143.654 75.992 142.79 76.472C141.936 76.952 140.998 77.192 139.974 77.192ZM139.99 75.192C140.63 75.192 141.206 75.048 141.718 74.76C142.24 74.4613 142.646 74.0507 142.934 73.528C143.232 72.9947 143.382 72.392 143.382 71.72C143.382 71.0587 143.232 70.4667 142.934 69.944C142.646 69.4107 142.24 68.9947 141.718 68.696C141.206 68.3973 140.63 68.248 139.99 68.248C139.339 68.248 138.758 68.3973 138.246 68.696C137.734 68.984 137.328 69.3947 137.03 69.928C136.742 70.4507 136.598 71.048 136.598 71.72C136.598 72.392 136.742 72.9947 137.03 73.528C137.328 74.0507 137.734 74.4613 138.246 74.76C138.758 75.048 139.339 75.192 139.99 75.192ZM156.258 66.44L151.554 77.192H150.834L146.114 66.44H148.562L151.202 72.84L153.826 66.44H156.258ZM157.7 66.44H164.804V68.392H159.86V70.536H163.492V72.376H159.86V75.048H164.996V77H157.7V66.44ZM170.216 77.192C169.32 77.192 168.515 76.984 167.8 76.568C167.096 76.1413 166.542 75.5707 166.136 74.856L167.624 73.736C167.966 74.2053 168.339 74.5787 168.744 74.856C169.15 75.1333 169.64 75.272 170.216 75.272C170.686 75.272 171.054 75.1707 171.32 74.968C171.587 74.7547 171.72 74.4667 171.72 74.104C171.72 73.7947 171.619 73.56 171.416 73.4C171.224 73.2293 170.878 73.0267 170.376 72.792L169.24 72.28C168.43 71.9173 167.8 71.496 167.352 71.016C166.904 70.536 166.68 69.944 166.68 69.24C166.68 68.6427 166.83 68.12 167.128 67.672C167.438 67.2133 167.859 66.8613 168.392 66.616C168.926 66.3707 169.523 66.248 170.184 66.248C170.995 66.248 171.694 66.4293 172.28 66.792C172.878 67.1547 173.342 67.64 173.672 68.248L172.2 69.384C171.656 68.5733 170.984 68.168 170.184 68.168C169.811 68.168 169.496 68.2587 169.24 68.44C168.995 68.6107 168.872 68.8613 168.872 69.192C168.872 69.4693 168.963 69.6933 169.144 69.864C169.336 70.024 169.656 70.2053 170.104 70.408L171.304 70.936C172.19 71.3307 172.846 71.768 173.272 72.248C173.699 72.7173 173.912 73.3093 173.912 74.024C173.912 74.664 173.752 75.224 173.432 75.704C173.112 76.184 172.67 76.552 172.104 76.808C171.55 77.064 170.92 77.192 170.216 77.192ZM185.721 75.624H181.401L180.809 77H178.489L183.209 66.248H183.929L188.633 77H186.313L185.721 75.624ZM183.561 70.28L182.153 73.848H184.969L183.561 70.28ZM198.803 77.192C197.758 77.192 196.803 76.952 195.939 76.472C195.086 75.992 194.408 75.336 193.907 74.504C193.406 73.6613 193.155 72.7333 193.155 71.72C193.155 70.696 193.4 69.768 193.891 68.936C194.392 68.104 195.075 67.448 195.939 66.968C196.803 66.488 197.758 66.248 198.803 66.248C199.731 66.248 200.574 66.4507 201.331 66.856C202.099 67.2507 202.739 67.8107 203.251 68.536L201.715 69.8C200.968 68.7653 199.987 68.248 198.771 68.248C198.099 68.248 197.507 68.3973 196.995 68.696C196.483 68.9947 196.083 69.4053 195.795 69.928C195.518 70.4507 195.379 71.048 195.379 71.72C195.379 72.4027 195.523 73.0107 195.811 73.544C196.11 74.0773 196.526 74.4987 197.059 74.808C197.592 75.1067 198.206 75.256 198.899 75.256C199.507 75.256 200.046 75.1387 200.515 74.904C200.995 74.6693 201.384 74.3493 201.683 73.944V73.08H198.771V71.208H203.843V74.328C203.363 75.1813 202.675 75.8747 201.779 76.408C200.894 76.9307 199.902 77.192 198.803 77.192ZM212.196 77L209.46 73.272H207.876V77H205.716V66.44H209.684C210.42 66.44 211.076 66.584 211.652 66.872C212.228 67.1493 212.676 67.5493 212.996 68.072C213.327 68.584 213.492 69.176 213.492 69.848C213.492 70.52 213.327 71.1173 212.996 71.64C212.665 72.1627 212.212 72.568 211.636 72.856L214.628 77H212.196ZM207.876 71.368H209.684C210.185 71.368 210.575 71.2293 210.852 70.952C211.14 70.6747 211.284 70.3067 211.284 69.848C211.284 69.4 211.14 69.0373 210.852 68.76C210.564 68.4827 210.175 68.344 209.684 68.344H207.876V71.368ZM215.95 66.44H223.054V68.392H218.11V70.536H221.742V72.376H218.11V75.048H223.246V77H215.95V66.44ZM231.346 75.624H227.026L226.434 77H224.114L228.834 66.248H229.554L234.258 77H231.938L231.346 75.624ZM229.186 70.28L227.778 73.848H230.594L229.186 70.28ZM236.881 68.392H233.505V66.44H242.433V68.392H239.041V77H236.881V68.392ZM247.544 66.44H254.648V68.392H249.704V70.536H253.336V72.376H249.704V75.048H254.84V77H247.544V66.44ZM262.652 77L260.412 73.496L258.172 77H255.708L259.212 71.624L255.916 66.44H258.38L260.412 69.768L262.428 66.44H264.876L261.628 71.624L265.1 77H262.652ZM266.544 66.44H270.512C271.248 66.44 271.904 66.584 272.48 66.872C273.056 67.1493 273.504 67.5493 273.824 68.072C274.155 68.584 274.32 69.176 274.32 69.848C274.32 70.52 274.155 71.1173 273.824 71.64C273.504 72.152 273.056 72.552 272.48 72.84C271.904 73.128 271.248 73.272 270.512 73.272H268.704V77H266.544V66.44ZM270.512 71.384C271.013 71.384 271.403 71.2453 271.68 70.968C271.968 70.68 272.112 70.3067 272.112 69.848C272.112 69.4 271.968 69.0373 271.68 68.76C271.392 68.4827 271.003 68.344 270.512 68.344H268.704V71.384H270.512ZM276.044 66.44H283.148V68.392H278.204V70.536H281.836V72.376H278.204V75.048H283.34V77H276.044V66.44ZM291.696 77L288.96 73.272H287.376V77H285.216V66.44H289.184C289.92 66.44 290.576 66.584 291.152 66.872C291.728 67.1493 292.176 67.5493 292.496 68.072C292.827 68.584 292.992 69.176 292.992 69.848C292.992 70.52 292.827 71.1173 292.496 71.64C292.165 72.1627 291.712 72.568 291.136 72.856L294.128 77H291.696ZM287.376 71.368H289.184C289.685 71.368 290.075 71.2293 290.352 70.952C290.64 70.6747 290.784 70.3067 290.784 69.848C290.784 69.4 290.64 69.0373 290.352 68.76C290.064 68.4827 289.675 68.344 289.184 68.344H287.376V71.368ZM295.45 66.44H297.61V77H295.45V66.44ZM300.029 66.44H307.133V68.392H302.189V70.536H305.821V72.376H302.189V75.048H307.325V77H300.029V66.44ZM318.192 66.44V77.192H317.472L311.36 70.664V77H309.2V66.248H309.904L316.032 72.744V66.44H318.192ZM325.615 77.192C324.58 77.192 323.631 76.952 322.767 76.472C321.913 75.992 321.236 75.336 320.735 74.504C320.244 73.6613 319.999 72.7333 319.999 71.72C319.999 70.7067 320.249 69.784 320.751 68.952C321.252 68.1093 321.929 67.448 322.783 66.968C323.647 66.488 324.596 66.248 325.631 66.248C326.633 66.248 327.54 66.4827 328.351 66.952C329.172 67.4107 329.817 68.0507 330.287 68.872L328.655 70.024C327.908 68.84 326.9 68.248 325.631 68.248C324.98 68.248 324.393 68.3973 323.871 68.696C323.359 68.9947 322.953 69.4107 322.655 69.944C322.367 70.4667 322.223 71.064 322.223 71.736C322.223 72.408 322.367 73.0053 322.655 73.528C322.953 74.0507 323.359 74.4613 323.871 74.76C324.393 75.048 324.98 75.192 325.631 75.192C326.9 75.192 327.908 74.6 328.655 73.416L330.287 74.568C329.828 75.3893 329.188 76.0347 328.367 76.504C327.545 76.9627 326.628 77.192 325.615 77.192ZM332.122 66.44H339.226V68.392H334.282V70.536H337.914V72.376H334.282V75.048H339.418V77H332.122V66.44Z" fill="white"/>
</svg>
