<svg width="236" height="84" viewBox="0 0 236 84" fill="none" xmlns="http://www.w3.org/2000/svg">
<g clip-path="url(#clip0_15_703)">
<g clip-path="url(#clip1_15_703)">
<g clip-path="url(#clip2_15_703)">
<path d="M26.3996 68.6127C28.947 68.6127 31.0121 66.5476 31.0121 64.0002C31.0121 61.4528 28.947 59.3877 26.3996 59.3877C23.8522 59.3877 21.7871 61.4528 21.7871 64.0002C21.7871 66.5476 23.8522 68.6127 26.3996 68.6127Z" fill="#00A680"/>
<path d="M26.4012 72.8873C21.4512 72.8873 17.5137 68.9498 17.5137 63.9998C17.5137 59.0498 21.4512 55.1123 26.4012 55.1123C31.3512 55.1123 35.2887 59.0498 35.2887 63.9998C35.2887 68.9498 31.3512 72.8873 26.4012 72.8873ZM26.4012 56.7998C22.4637 56.7998 19.2012 60.0623 19.2012 63.9998C19.2012 67.9373 22.4637 71.1998 26.4012 71.1998C30.3387 71.1998 33.6012 67.9373 33.6012 63.9998C33.6012 60.0623 30.3387 56.7998 26.4012 56.7998Z" fill="#00A680"/>
<path d="M19.5375 55H33.375C34.5 55 35.4 55.9 35.4 57.025V70.8625C35.4 71.9875 34.5 72.8875 33.375 72.8875H19.5375C18.4125 72.8875 17.5125 71.9875 17.5125 70.8625V57.1375C17.4 56.0125 18.4125 55 19.5375 55Z" fill="#D32323"/>
<path d="M26.5117 58.0375L28.3117 61.6375C28.3117 61.6375 28.3117 61.75 28.4242 61.75L32.3617 62.3125C32.4742 62.3125 32.4742 62.425 32.4742 62.425V62.5375L29.5492 65.35V65.4625L30.2242 69.4C30.2242 69.5125 30.2242 69.5125 30.1117 69.5125H29.9992L26.3992 67.6H26.2867L22.7992 69.625C22.6867 69.625 22.6867 69.625 22.5742 69.625V69.5125L23.2492 65.575V65.4625L20.3242 62.5375C20.3242 62.5375 20.3242 62.425 20.3242 62.3125C20.3242 62.3125 20.3242 62.3125 20.4367 62.3125L24.3742 61.75C24.3742 61.75 24.4867 61.75 24.4867 61.6375L26.2867 58.0375C26.2867 57.925 26.3992 57.925 26.5117 58.0375Z" fill="white"/>
</g>
</g>
</g>
<path d="M40.1054 66.87V65.22L45.0104 58.2H47.4554V65.04H48.7754V66.87H47.4554V69H45.3554V66.87H40.1054ZM45.4904 60.45L42.4154 65.04H45.4904V60.45ZM51.2824 69.105C50.9024 69.105 50.5874 68.99 50.3374 68.76C50.0974 68.52 49.9774 68.225 49.9774 67.875C49.9774 67.525 50.0974 67.235 50.3374 67.005C50.5874 66.765 50.9024 66.645 51.2824 66.645C51.6524 66.645 51.9574 66.765 52.1974 67.005C52.4374 67.235 52.5574 67.525 52.5574 67.875C52.5574 68.225 52.4374 68.52 52.1974 68.76C51.9574 68.99 51.6524 69.105 51.2824 69.105ZM56.4389 65.925C56.5189 66.365 56.6989 66.705 56.9789 66.945C57.2689 67.175 57.6539 67.29 58.1339 67.29C58.7539 67.29 59.2039 67.035 59.4839 66.525C59.7639 66.005 59.9039 65.135 59.9039 63.915C59.6739 64.235 59.3489 64.485 58.9289 64.665C58.5189 64.845 58.0739 64.935 57.5939 64.935C56.9539 64.935 56.3739 64.805 55.8539 64.545C55.3439 64.275 54.9389 63.88 54.6389 63.36C54.3389 62.83 54.1889 62.19 54.1889 61.44C54.1889 60.33 54.5189 59.45 55.1789 58.8C55.8389 58.14 56.7389 57.81 57.8789 57.81C59.2989 57.81 60.2989 58.265 60.8789 59.175C61.4689 60.085 61.7639 61.455 61.7639 63.285C61.7639 64.585 61.6489 65.65 61.4189 66.48C61.1989 67.31 60.8139 67.94 60.2639 68.37C59.7239 68.8 58.9839 69.015 58.0439 69.015C57.3039 69.015 56.6739 68.875 56.1539 68.595C55.6339 68.305 55.2339 67.93 54.9539 67.47C54.6839 67 54.5289 66.485 54.4889 65.925H56.4389ZM58.0289 63.225C58.5489 63.225 58.9589 63.065 59.2589 62.745C59.5589 62.425 59.7089 61.995 59.7089 61.455C59.7089 60.865 59.5489 60.41 59.2289 60.09C58.9189 59.76 58.4939 59.595 57.9539 59.595C57.4139 59.595 56.9839 59.765 56.6639 60.105C56.3539 60.435 56.1989 60.875 56.1989 61.425C56.1989 61.955 56.3489 62.39 56.6489 62.73C56.9589 63.06 57.4189 63.225 58.0289 63.225Z" fill="white"/>
<g clip-path="url(#clip3_15_703)">
<g clip-path="url(#clip4_15_703)">
<path d="M37.254 38.1821L31.7229 44.9168C31.5421 45.137 31.416 45.3968 31.3547 45.675C31.2935 45.9532 31.2989 46.242 31.3705 46.5177C31.4422 46.7935 31.5779 47.0483 31.7668 47.2616C31.9557 47.4748 32.1924 47.6404 32.4575 47.7448L37.8645 49.8731C38.1348 49.9795 38.4268 50.0191 38.7156 49.9887C39.0045 49.9582 39.2817 49.8586 39.5239 49.6982C39.7661 49.5379 39.966 49.3215 40.1068 49.0674C40.2476 48.8134 40.325 48.5291 40.3326 48.2388L40.5658 39.417C40.6126 37.6367 38.3833 36.8103 37.254 38.1821Z" fill="#DC0000"/>
<path d="M36.3345 31.4851L28.1325 28.5423C27.8643 28.4461 27.5772 28.4145 27.2945 28.4504C27.0119 28.4862 26.7417 28.5884 26.5061 28.7486C26.2705 28.9087 26.076 29.1223 25.9387 29.372C25.8014 29.6216 25.725 29.9002 25.7158 30.1849L25.5322 35.9923C25.5228 36.2826 25.5834 36.5708 25.7091 36.8326C25.8348 37.0944 26.0217 37.3221 26.2541 37.4962C26.4865 37.6704 26.7574 37.786 27.044 37.8331C27.3305 37.8803 27.6242 37.8577 27.9002 37.7672L36.2876 35.0209C37.9752 34.4673 38.0083 32.0883 36.3345 31.4851Z" fill="#DC0000"/>
<path d="M45.7357 32.432L54.137 30.1164C54.4116 30.0406 54.6644 29.901 54.8747 29.7089C55.0851 29.5168 55.247 29.2777 55.3474 29.0111C55.4477 28.7445 55.4836 28.458 55.4521 28.1749C55.4207 27.8918 55.3227 27.6201 55.1663 27.3821L51.9747 22.5268C51.8155 22.2841 51.6002 22.0833 51.3469 21.9414C51.0937 21.7996 50.81 21.7208 50.5199 21.7118C50.2297 21.7028 49.9417 21.7638 49.6802 21.8897C49.4186 22.0156 49.1912 22.2026 49.0173 22.435L43.7415 29.5095C42.6782 30.94 44.0206 32.9049 45.7357 32.432Z" fill="#DC0000"/>
<path d="M39.6511 12.243C39.6666 11.9055 39.6021 11.5691 39.4629 11.2613C39.3236 10.9534 39.1136 10.6829 38.8498 10.4717C38.5861 10.2605 38.2762 10.1147 37.9453 10.0461C37.6145 9.97749 37.2721 9.98811 36.9462 10.0771L30.2959 11.8932C29.9634 11.9839 29.6577 12.1534 29.4047 12.3874C29.1517 12.6214 28.9589 12.9129 28.8426 13.2373C28.7263 13.5617 28.6899 13.9093 28.7365 14.2507C28.7832 14.5922 28.9115 14.9173 29.1105 15.1986L36.7423 28.4202C36.8031 28.5283 36.8734 28.6306 36.9526 28.726C38.0829 30.0537 40.2047 29.5615 40.7272 28.0071C40.8179 27.7264 40.851 27.4304 40.8245 27.1366L39.6511 12.243Z" fill="#DC0000"/>
<path d="M54.1967 38.4761L45.7606 35.8859C44.0601 35.3635 42.6609 37.2889 43.6828 38.7451L48.6877 45.8783C48.8514 46.1114 49.0678 46.3025 49.3194 46.436C49.5709 46.5695 49.8505 46.6416 50.1352 46.6465C50.42 46.6515 50.7018 46.589 50.9578 46.4643C51.2139 46.3396 51.4368 46.1561 51.6084 45.9288L55.1057 41.2912C55.2805 41.0596 55.397 40.7893 55.4453 40.5031C55.4935 40.217 55.4722 39.9234 55.383 39.6473C55.2939 39.3712 55.1395 39.1206 54.933 38.9167C54.7265 38.7128 54.474 38.5617 54.1967 38.4761Z" fill="#DC0000"/>
</g>
</g>
<path d="M88.976 15.483V17.3475H85.907V27H83.597V17.3475H80.528V15.483H88.976ZM94.7204 27.1485C93.8404 27.1485 93.0484 26.956 92.3444 26.571C91.6404 26.175 91.0849 25.6195 90.6779 24.9045C90.2819 24.1895 90.0839 23.3645 90.0839 22.4295C90.0839 21.4945 90.2874 20.6695 90.6944 19.9545C91.1124 19.2395 91.6789 18.6895 92.3939 18.3045C93.1089 17.9085 93.9064 17.7105 94.7864 17.7105C95.6664 17.7105 96.4639 17.9085 97.1789 18.3045C97.8939 18.6895 98.4549 19.2395 98.8619 19.9545C99.2799 20.6695 99.4889 21.4945 99.4889 22.4295C99.4889 23.3645 99.2744 24.1895 98.8454 24.9045C98.4274 25.6195 97.8554 26.175 97.1294 26.571C96.4144 26.956 95.6114 27.1485 94.7204 27.1485ZM94.7204 25.1355C95.1384 25.1355 95.5289 25.0365 95.8919 24.8385C96.2659 24.6295 96.5629 24.3215 96.7829 23.9145C97.0029 23.5075 97.1129 23.0125 97.1129 22.4295C97.1129 21.5605 96.8819 20.895 96.4199 20.433C95.9689 19.96 95.4134 19.7235 94.7534 19.7235C94.0934 19.7235 93.5379 19.96 93.0869 20.433C92.6469 20.895 92.4269 21.5605 92.4269 22.4295C92.4269 23.2985 92.6414 23.9695 93.0704 24.4425C93.5104 24.9045 94.0604 25.1355 94.7204 25.1355ZM103.493 19.179C103.79 18.761 104.197 18.4145 104.714 18.1395C105.242 17.8535 105.842 17.7105 106.513 17.7105C107.294 17.7105 107.998 17.903 108.625 18.288C109.263 18.673 109.763 19.223 110.126 19.938C110.5 20.642 110.687 21.4615 110.687 22.3965C110.687 23.3315 110.5 24.162 110.126 24.888C109.763 25.603 109.263 26.1585 108.625 26.5545C107.998 26.9505 107.294 27.1485 106.513 27.1485C105.842 27.1485 105.248 27.011 104.731 26.736C104.225 26.461 103.812 26.1145 103.493 25.6965V31.356H101.183V17.859H103.493V19.179ZM108.328 22.3965C108.328 21.8465 108.212 21.3735 107.981 20.9775C107.761 20.5705 107.464 20.2625 107.09 20.0535C106.727 19.8445 106.331 19.74 105.902 19.74C105.484 19.74 105.088 19.85 104.714 20.07C104.351 20.279 104.054 20.587 103.823 20.994C103.603 21.401 103.493 21.8795 103.493 22.4295C103.493 22.9795 103.603 23.458 103.823 23.865C104.054 24.272 104.351 24.5855 104.714 24.8055C105.088 25.0145 105.484 25.119 105.902 25.119C106.331 25.119 106.727 25.009 107.09 24.789C107.464 24.569 107.761 24.2555 107.981 23.8485C108.212 23.4415 108.328 22.9575 108.328 22.3965ZM122.238 27L119.697 22.512H118.608V27H116.298V15.483H120.621C121.512 15.483 122.271 15.6425 122.898 15.9615C123.525 16.2695 123.992 16.693 124.3 17.232C124.619 17.76 124.779 18.354 124.779 19.014C124.779 19.773 124.559 20.4605 124.119 21.0765C123.679 21.6815 123.024 22.0995 122.155 22.3305L124.911 27H122.238ZM118.608 20.7795H120.538C121.165 20.7795 121.633 20.631 121.941 20.334C122.249 20.026 122.403 19.6025 122.403 19.0635C122.403 18.5355 122.249 18.1285 121.941 17.8425C121.633 17.5455 121.165 17.397 120.538 17.397H118.608V20.7795ZM126.274 22.3965C126.274 21.4725 126.455 20.653 126.818 19.938C127.192 19.223 127.693 18.673 128.32 18.288C128.958 17.903 129.667 17.7105 130.448 17.7105C131.13 17.7105 131.724 17.848 132.23 18.123C132.747 18.398 133.16 18.7445 133.468 19.1625V17.859H135.794V27H133.468V25.6635C133.171 26.0925 132.758 26.45 132.23 26.736C131.713 27.011 131.114 27.1485 130.432 27.1485C129.662 27.1485 128.958 26.9505 128.32 26.5545C127.693 26.1585 127.192 25.603 126.818 24.888C126.455 24.162 126.274 23.3315 126.274 22.3965ZM133.468 22.4295C133.468 21.8685 133.358 21.39 133.138 20.994C132.918 20.587 132.621 20.279 132.247 20.07C131.873 19.85 131.471 19.74 131.042 19.74C130.613 19.74 130.217 19.8445 129.854 20.0535C129.491 20.2625 129.194 20.5705 128.963 20.9775C128.743 21.3735 128.633 21.8465 128.633 22.3965C128.633 22.9465 128.743 23.4305 128.963 23.8485C129.194 24.2555 129.491 24.569 129.854 24.789C130.228 25.009 130.624 25.119 131.042 25.119C131.471 25.119 131.873 25.0145 132.247 24.8055C132.621 24.5855 132.918 24.2775 133.138 23.8815C133.358 23.4745 133.468 22.9905 133.468 22.4295ZM140.74 19.7565V24.1785C140.74 24.4865 140.812 24.712 140.955 24.855C141.109 24.987 141.362 25.053 141.714 25.053H142.786V27H141.334C139.387 27 138.414 26.054 138.414 24.162V19.7565H137.325V17.859H138.414V15.5985H140.74V17.859H142.786V19.7565H140.74ZM152.945 22.2315C152.945 22.5615 152.923 22.8585 152.879 23.1225H146.197C146.252 23.7825 146.483 24.2995 146.89 24.6735C147.297 25.0475 147.797 25.2345 148.391 25.2345C149.249 25.2345 149.86 24.866 150.223 24.129H152.714C152.45 25.009 151.944 25.735 151.196 26.307C150.448 26.868 149.53 27.1485 148.441 27.1485C147.561 27.1485 146.769 26.956 146.065 26.571C145.372 26.175 144.827 25.6195 144.431 24.9045C144.046 24.1895 143.854 23.3645 143.854 22.4295C143.854 21.4835 144.046 20.653 144.431 19.938C144.816 19.223 145.355 18.673 146.048 18.288C146.741 17.903 147.539 17.7105 148.441 17.7105C149.31 17.7105 150.085 17.8975 150.767 18.2715C151.46 18.6455 151.994 19.179 152.368 19.872C152.753 20.554 152.945 21.3405 152.945 22.2315ZM150.553 21.5715C150.542 20.9775 150.327 20.5045 149.909 20.1525C149.491 19.7895 148.98 19.608 148.375 19.608C147.803 19.608 147.319 19.784 146.923 20.136C146.538 20.477 146.301 20.9555 146.213 21.5715H150.553ZM154.037 22.3965C154.037 21.4725 154.219 20.653 154.582 19.938C154.956 19.223 155.462 18.673 156.1 18.288C156.738 17.903 157.447 17.7105 158.228 17.7105C158.822 17.7105 159.389 17.8425 159.928 18.1065C160.467 18.3595 160.896 18.7005 161.215 19.1295V14.79H163.558V27H161.215V25.647C160.929 26.098 160.527 26.461 160.01 26.736C159.493 27.011 158.894 27.1485 158.212 27.1485C157.442 27.1485 156.738 26.9505 156.1 26.5545C155.462 26.1585 154.956 25.603 154.582 24.888C154.219 24.162 154.037 23.3315 154.037 22.3965ZM161.231 22.4295C161.231 21.8685 161.121 21.39 160.901 20.994C160.681 20.587 160.384 20.279 160.01 20.07C159.636 19.85 159.235 19.74 158.806 19.74C158.377 19.74 157.981 19.8445 157.618 20.0535C157.255 20.2625 156.958 20.5705 156.727 20.9775C156.507 21.3735 156.397 21.8465 156.397 22.3965C156.397 22.9465 156.507 23.4305 156.727 23.8485C156.958 24.2555 157.255 24.569 157.618 24.789C157.992 25.009 158.388 25.119 158.806 25.119C159.235 25.119 159.636 25.0145 160.01 24.8055C160.384 24.5855 160.681 24.2775 160.901 23.8815C161.121 23.4745 161.231 22.9905 161.231 22.4295ZM85.115 50.1155C84.312 50.1155 83.586 49.978 82.937 49.703C82.299 49.428 81.793 49.032 81.419 48.515C81.045 47.998 80.8525 47.3875 80.8415 46.6835H83.3165C83.3495 47.1565 83.5145 47.5305 83.8115 47.8055C84.1195 48.0805 84.5375 48.218 85.0655 48.218C85.6045 48.218 86.028 48.0915 86.336 47.8385C86.644 47.5745 86.798 47.2335 86.798 46.8155C86.798 46.4745 86.6935 46.194 86.4845 45.974C86.2755 45.754 86.0115 45.5835 85.6925 45.4625C85.3845 45.3305 84.9555 45.1875 84.4055 45.0335C83.6575 44.8135 83.047 44.599 82.574 44.39C82.112 44.17 81.7105 43.8455 81.3695 43.4165C81.0395 42.9765 80.8745 42.3935 80.8745 41.6675C80.8745 40.9855 81.045 40.3915 81.386 39.8855C81.727 39.3795 82.2055 38.9945 82.8215 38.7305C83.4375 38.4555 84.1415 38.318 84.9335 38.318C86.1215 38.318 87.084 38.6095 87.821 39.1925C88.569 39.7645 88.9815 40.5675 89.0585 41.6015H86.5175C86.4955 41.2055 86.325 40.881 86.006 40.628C85.698 40.364 85.2855 40.232 84.7685 40.232C84.3175 40.232 83.9545 40.3475 83.6795 40.5785C83.4155 40.8095 83.2835 41.145 83.2835 41.585C83.2835 41.893 83.3825 42.1515 83.5805 42.3605C83.7895 42.5585 84.0425 42.7235 84.3395 42.8555C84.6475 42.9765 85.0765 43.1195 85.6265 43.2845C86.3745 43.5045 86.985 43.7245 87.458 43.9445C87.931 44.1645 88.338 44.4945 88.679 44.9345C89.02 45.3745 89.1905 45.952 89.1905 46.667C89.1905 47.283 89.031 47.855 88.712 48.383C88.393 48.911 87.9255 49.3345 87.3095 49.6535C86.6935 49.9615 85.962 50.1155 85.115 50.1155ZM99.6907 45.2315C99.6907 45.5615 99.6687 45.8585 99.6247 46.1225H92.9422C92.9972 46.7825 93.2282 47.2995 93.6352 47.6735C94.0422 48.0475 94.5427 48.2345 95.1367 48.2345C95.9947 48.2345 96.6052 47.866 96.9682 47.129H99.4597C99.1957 48.009 98.6897 48.735 97.9417 49.307C97.1937 49.868 96.2752 50.1485 95.1862 50.1485C94.3062 50.1485 93.5142 49.956 92.8102 49.571C92.1172 49.175 91.5727 48.6195 91.1767 47.9045C90.7917 47.1895 90.5992 46.3645 90.5992 45.4295C90.5992 44.4835 90.7917 43.653 91.1767 42.938C91.5617 42.223 92.1007 41.673 92.7937 41.288C93.4867 40.903 94.2842 40.7105 95.1862 40.7105C96.0552 40.7105 96.8307 40.8975 97.5127 41.2715C98.2057 41.6455 98.7392 42.179 99.1132 42.872C99.4982 43.554 99.6907 44.3405 99.6907 45.2315ZM97.2982 44.5715C97.2872 43.9775 97.0727 43.5045 96.6547 43.1525C96.2367 42.7895 95.7252 42.608 95.1202 42.608C94.5482 42.608 94.0642 42.784 93.6682 43.136C93.2832 43.477 93.0467 43.9555 92.9587 44.5715H97.2982ZM103.687 42.278C103.984 41.794 104.369 41.4145 104.842 41.1395C105.326 40.8645 105.876 40.727 106.492 40.727V43.1525H105.881C105.155 43.1525 104.605 43.323 104.231 43.664C103.868 44.005 103.687 44.599 103.687 45.446V50H101.377V40.859H103.687V42.278ZM111.859 47.8715L114.169 40.859H116.628L113.245 50H110.44L107.074 40.859H109.549L111.859 47.8715ZM119.097 39.77C118.69 39.77 118.349 39.6435 118.074 39.3905C117.81 39.1265 117.678 38.802 117.678 38.417C117.678 38.032 117.81 37.713 118.074 37.46C118.349 37.196 118.69 37.064 119.097 37.064C119.504 37.064 119.839 37.196 120.103 37.46C120.378 37.713 120.516 38.032 120.516 38.417C120.516 38.802 120.378 39.1265 120.103 39.3905C119.839 39.6435 119.504 39.77 119.097 39.77ZM120.235 40.859V50H117.925V40.859H120.235ZM121.923 45.4295C121.923 44.4835 122.116 43.6585 122.501 42.9545C122.886 42.2395 123.419 41.6895 124.101 41.3045C124.783 40.9085 125.564 40.7105 126.444 40.7105C127.577 40.7105 128.512 40.9965 129.249 41.5685C129.997 42.1295 130.498 42.9215 130.751 43.9445H128.259C128.127 43.5485 127.902 43.2405 127.583 43.0205C127.275 42.7895 126.89 42.674 126.428 42.674C125.768 42.674 125.245 42.916 124.86 43.4C124.475 43.873 124.283 44.5495 124.283 45.4295C124.283 46.2985 124.475 46.975 124.86 47.459C125.245 47.932 125.768 48.1685 126.428 48.1685C127.363 48.1685 127.973 47.7505 128.259 46.9145H130.751C130.498 47.9045 129.997 48.691 129.249 49.274C128.501 49.857 127.566 50.1485 126.444 50.1485C125.564 50.1485 124.783 49.956 124.101 49.571C123.419 49.175 122.886 48.625 122.501 47.921C122.116 47.206 121.923 46.3755 121.923 45.4295ZM140.941 45.2315C140.941 45.5615 140.919 45.8585 140.875 46.1225H134.192C134.247 46.7825 134.478 47.2995 134.885 47.6735C135.292 48.0475 135.793 48.2345 136.387 48.2345C137.245 48.2345 137.855 47.866 138.218 47.129H140.71C140.446 48.009 139.94 48.735 139.192 49.307C138.444 49.868 137.525 50.1485 136.436 50.1485C135.556 50.1485 134.764 49.956 134.06 49.571C133.367 49.175 132.823 48.6195 132.427 47.9045C132.042 47.1895 131.849 46.3645 131.849 45.4295C131.849 44.4835 132.042 43.653 132.427 42.938C132.812 42.223 133.351 41.673 134.044 41.288C134.737 40.903 135.534 40.7105 136.436 40.7105C137.305 40.7105 138.081 40.8975 138.763 41.2715C139.456 41.6455 139.989 42.179 140.363 42.872C140.748 43.554 140.941 44.3405 140.941 45.2315ZM138.548 44.5715C138.537 43.9775 138.323 43.5045 137.905 43.1525C137.487 42.7895 136.975 42.608 136.37 42.608C135.798 42.608 135.314 42.784 134.918 43.136C134.533 43.477 134.297 43.9555 134.209 44.5715H138.548ZM147.02 47.393C148.076 46.513 148.918 45.7815 149.545 45.1985C150.172 44.6045 150.694 43.9885 151.112 43.3505C151.53 42.7125 151.739 42.0855 151.739 41.4695C151.739 40.9085 151.607 40.4685 151.343 40.1495C151.079 39.8305 150.672 39.671 150.122 39.671C149.572 39.671 149.149 39.858 148.852 40.232C148.555 40.595 148.401 41.0955 148.39 41.7335H146.146C146.19 40.4135 146.58 39.4125 147.317 38.7305C148.065 38.0485 149.011 37.7075 150.155 37.7075C151.409 37.7075 152.372 38.043 153.043 38.714C153.714 39.374 154.049 40.2485 154.049 41.3375C154.049 42.1955 153.818 43.015 153.356 43.796C152.894 44.577 152.366 45.259 151.772 45.842C151.178 46.414 150.403 47.107 149.446 47.921H154.313V49.835H146.162V48.119L147.02 47.393ZM155.769 43.829C155.769 41.926 156.11 40.4355 156.792 39.3575C157.485 38.2795 158.629 37.7405 160.224 37.7405C161.819 37.7405 162.958 38.2795 163.64 39.3575C164.333 40.4355 164.679 41.926 164.679 43.829C164.679 45.743 164.333 47.2445 163.64 48.3335C162.958 49.4225 161.819 49.967 160.224 49.967C158.629 49.967 157.485 49.4225 156.792 48.3335C156.11 47.2445 155.769 45.743 155.769 43.829ZM162.402 43.829C162.402 43.015 162.347 42.333 162.237 41.783C162.138 41.222 161.929 40.7655 161.61 40.4135C161.302 40.0615 160.84 39.8855 160.224 39.8855C159.608 39.8855 159.141 40.0615 158.822 40.4135C158.514 40.7655 158.305 41.222 158.195 41.783C158.096 42.333 158.046 43.015 158.046 43.829C158.046 44.665 158.096 45.369 158.195 45.941C158.294 46.502 158.503 46.9585 158.822 47.3105C159.141 47.6515 159.608 47.822 160.224 47.822C160.84 47.822 161.308 47.6515 161.627 47.3105C161.946 46.9585 162.155 46.502 162.254 45.941C162.353 45.369 162.402 44.665 162.402 43.829ZM167.162 47.393C168.218 46.513 169.06 45.7815 169.687 45.1985C170.314 44.6045 170.836 43.9885 171.254 43.3505C171.672 42.7125 171.881 42.0855 171.881 41.4695C171.881 40.9085 171.749 40.4685 171.485 40.1495C171.221 39.8305 170.814 39.671 170.264 39.671C169.714 39.671 169.291 39.858 168.994 40.232C168.697 40.595 168.543 41.0955 168.532 41.7335H166.288C166.332 40.4135 166.722 39.4125 167.459 38.7305C168.207 38.0485 169.153 37.7075 170.297 37.7075C171.551 37.7075 172.514 38.043 173.185 38.714C173.856 39.374 174.191 40.2485 174.191 41.3375C174.191 42.1955 173.96 43.015 173.498 43.796C173.036 44.577 172.508 45.259 171.914 45.842C171.32 46.414 170.545 47.107 169.588 47.921H174.455V49.835H166.304V48.119L167.162 47.393ZM183.996 39.968H178.65V42.7895C178.881 42.5035 179.211 42.2725 179.64 42.0965C180.069 41.9095 180.525 41.816 181.009 41.816C181.889 41.816 182.61 42.0085 183.171 42.3935C183.732 42.7785 184.139 43.2735 184.392 43.8785C184.645 44.4725 184.771 45.1105 184.771 45.7925C184.771 47.0575 184.408 48.075 183.682 48.845C182.967 49.615 181.944 50 180.613 50C179.359 50 178.358 49.6865 177.61 49.0595C176.862 48.4325 176.439 47.613 176.34 46.601H178.584C178.683 47.041 178.903 47.393 179.244 47.657C179.596 47.921 180.041 48.053 180.58 48.053C181.229 48.053 181.719 47.8495 182.049 47.4425C182.379 47.0355 182.544 46.4965 182.544 45.8255C182.544 45.1435 182.373 44.6265 182.032 44.2745C181.702 43.9115 181.213 43.73 180.564 43.73C180.102 43.73 179.717 43.8455 179.409 44.0765C179.101 44.3075 178.881 44.6155 178.749 45.0005H176.538V37.9385H183.996V39.968Z" fill="white"/>
<path d="M83.372 69.1819L85.412 63.6139H86.576L83.996 70.1899H82.724L80.144 63.6139H81.32L83.372 69.1819ZM93.6506 66.6499C93.6506 66.8579 93.6386 67.0779 93.6146 67.3099H88.3586C88.3986 67.9579 88.6186 68.4659 89.0186 68.8339C89.4266 69.1939 89.9186 69.3739 90.4946 69.3739C90.9666 69.3739 91.3586 69.2659 91.6706 69.0499C91.9906 68.8259 92.2146 68.5299 92.3426 68.1619H93.5186C93.3426 68.7939 92.9906 69.3099 92.4626 69.7099C91.9346 70.1019 91.2786 70.2979 90.4946 70.2979C89.8706 70.2979 89.3106 70.1579 88.8146 69.8779C88.3266 69.5979 87.9426 69.2019 87.6626 68.6899C87.3826 68.1699 87.2426 67.5699 87.2426 66.8899C87.2426 66.2099 87.3786 65.6139 87.6506 65.1019C87.9226 64.5899 88.3026 64.1979 88.7906 63.9259C89.2866 63.6459 89.8546 63.5059 90.4946 63.5059C91.1186 63.5059 91.6706 63.6419 92.1506 63.9139C92.6306 64.1859 92.9986 64.5619 93.2546 65.0419C93.5186 65.5139 93.6506 66.0499 93.6506 66.6499ZM92.5226 66.4219C92.5226 66.0059 92.4306 65.6499 92.2466 65.3539C92.0626 65.0499 91.8106 64.8219 91.4906 64.6699C91.1786 64.5099 90.8306 64.4299 90.4466 64.4299C89.8946 64.4299 89.4226 64.6059 89.0306 64.9579C88.6466 65.3099 88.4266 65.7979 88.3706 66.4219H92.5226ZM96.184 64.6819C96.376 64.3059 96.648 64.0139 97 63.8059C97.36 63.5979 97.796 63.4939 98.308 63.4939V64.6219H98.02C96.796 64.6219 96.184 65.2859 96.184 66.6139V70.1899H95.092V63.6139H96.184V64.6819ZM100.133 62.5459C99.9245 62.5459 99.7485 62.4739 99.6045 62.3299C99.4605 62.1859 99.3885 62.0099 99.3885 61.8019C99.3885 61.5939 99.4605 61.4179 99.6045 61.2739C99.7485 61.1299 99.9245 61.0579 100.133 61.0579C100.333 61.0579 100.501 61.1299 100.637 61.2739C100.781 61.4179 100.853 61.5939 100.853 61.8019C100.853 62.0099 100.781 62.1859 100.637 62.3299C100.501 62.4739 100.333 62.5459 100.133 62.5459ZM100.661 63.6139V70.1899H99.5685V63.6139H100.661ZM105.198 64.5139H103.818V70.1899H102.726V64.5139H101.874V63.6139H102.726V63.1459C102.726 62.4099 102.914 61.8739 103.29 61.5379C103.674 61.1939 104.286 61.0219 105.126 61.0219V61.9339C104.646 61.9339 104.306 62.0299 104.106 62.2219C103.914 62.4059 103.818 62.7139 103.818 63.1459V63.6139H105.198V64.5139ZM107.035 62.5459C106.827 62.5459 106.651 62.4739 106.507 62.3299C106.363 62.1859 106.291 62.0099 106.291 61.8019C106.291 61.5939 106.363 61.4179 106.507 61.2739C106.651 61.1299 106.827 61.0579 107.035 61.0579C107.235 61.0579 107.403 61.1299 107.539 61.2739C107.683 61.4179 107.755 61.5939 107.755 61.8019C107.755 62.0099 107.683 62.1859 107.539 62.3299C107.403 62.4739 107.235 62.5459 107.035 62.5459ZM107.563 63.6139V70.1899H106.471V63.6139H107.563ZM115.424 66.6499C115.424 66.8579 115.412 67.0779 115.388 67.3099H110.132C110.172 67.9579 110.392 68.4659 110.792 68.8339C111.2 69.1939 111.692 69.3739 112.268 69.3739C112.74 69.3739 113.132 69.2659 113.444 69.0499C113.764 68.8259 113.988 68.5299 114.116 68.1619H115.292C115.116 68.7939 114.764 69.3099 114.236 69.7099C113.708 70.1019 113.052 70.2979 112.268 70.2979C111.644 70.2979 111.084 70.1579 110.588 69.8779C110.1 69.5979 109.716 69.2019 109.436 68.6899C109.156 68.1699 109.016 67.5699 109.016 66.8899C109.016 66.2099 109.152 65.6139 109.424 65.1019C109.696 64.5899 110.076 64.1979 110.564 63.9259C111.06 63.6459 111.628 63.5059 112.268 63.5059C112.892 63.5059 113.444 63.6419 113.924 63.9139C114.404 64.1859 114.772 64.5619 115.028 65.0419C115.292 65.5139 115.424 66.0499 115.424 66.6499ZM114.296 66.4219C114.296 66.0059 114.204 65.6499 114.02 65.3539C113.836 65.0499 113.584 64.8219 113.264 64.6699C112.952 64.5099 112.604 64.4299 112.22 64.4299C111.668 64.4299 111.196 64.6059 110.804 64.9579C110.42 65.3099 110.2 65.7979 110.144 66.4219H114.296ZM116.457 66.8779C116.457 66.2059 116.593 65.6179 116.865 65.1139C117.137 64.6019 117.509 64.2059 117.981 63.9259C118.461 63.6459 118.997 63.5059 119.589 63.5059C120.101 63.5059 120.577 63.6259 121.017 63.8659C121.457 64.0979 121.793 64.4059 122.025 64.7899V61.3099H123.129V70.1899H122.025V68.9539C121.809 69.3459 121.489 69.6699 121.065 69.9259C120.641 70.1739 120.145 70.2979 119.577 70.2979C118.993 70.2979 118.461 70.1539 117.981 69.8659C117.509 69.5779 117.137 69.1739 116.865 68.6539C116.593 68.1339 116.457 67.5419 116.457 66.8779ZM122.025 66.8899C122.025 66.3939 121.925 65.9619 121.725 65.5939C121.525 65.2259 121.253 64.9459 120.909 64.7539C120.573 64.5539 120.201 64.4539 119.793 64.4539C119.385 64.4539 119.013 64.5499 118.677 64.7419C118.341 64.9339 118.073 65.2139 117.873 65.5819C117.673 65.9499 117.573 66.3819 117.573 66.8779C117.573 67.3819 117.673 67.8219 117.873 68.1979C118.073 68.5659 118.341 68.8499 118.677 69.0499C119.013 69.2419 119.385 69.3379 119.793 69.3379C120.201 69.3379 120.573 69.2419 120.909 69.0499C121.253 68.8499 121.525 68.5659 121.725 68.1979C121.925 67.8219 122.025 67.3859 122.025 66.8899ZM129.266 64.8379C129.49 64.4459 129.818 64.1259 130.25 63.8779C130.682 63.6299 131.174 63.5059 131.726 63.5059C132.318 63.5059 132.85 63.6459 133.322 63.9259C133.794 64.2059 134.166 64.6019 134.438 65.1139C134.71 65.6179 134.846 66.2059 134.846 66.8779C134.846 67.5419 134.71 68.1339 134.438 68.6539C134.166 69.1739 133.79 69.5779 133.31 69.8659C132.838 70.1539 132.31 70.2979 131.726 70.2979C131.158 70.2979 130.658 70.1739 130.226 69.9259C129.802 69.6779 129.482 69.3619 129.266 68.9779V70.1899H128.174V61.3099H129.266V64.8379ZM133.73 66.8779C133.73 66.3819 133.63 65.9499 133.43 65.5819C133.23 65.2139 132.958 64.9339 132.614 64.7419C132.278 64.5499 131.906 64.4539 131.498 64.4539C131.098 64.4539 130.726 64.5539 130.382 64.7539C130.046 64.9459 129.774 65.2299 129.566 65.6059C129.366 65.9739 129.266 66.4019 129.266 66.8899C129.266 67.3859 129.366 67.8219 129.566 68.1979C129.774 68.5659 130.046 68.8499 130.382 69.0499C130.726 69.2419 131.098 69.3379 131.498 69.3379C131.906 69.3379 132.278 69.2419 132.614 69.0499C132.958 68.8499 133.23 68.5659 133.43 68.1979C133.63 67.8219 133.73 67.3819 133.73 66.8779ZM141.947 63.6139L137.987 73.2859H136.859L138.155 70.1179L135.503 63.6139H136.715L138.779 68.9419L140.819 63.6139H141.947ZM151.392 61.8259V62.7139H149.112V70.1899H148.02V62.7139H145.728V61.8259H151.392ZM153.829 64.6819C154.021 64.3059 154.293 64.0139 154.645 63.8059C155.005 63.5979 155.441 63.4939 155.953 63.4939V64.6219H155.665C154.441 64.6219 153.829 65.2859 153.829 66.6139V70.1899H152.737V63.6139H153.829V64.6819ZM163.045 63.6139V70.1899H161.953V69.2179C161.745 69.5539 161.453 69.8179 161.077 70.0099C160.709 70.1939 160.301 70.2859 159.853 70.2859C159.341 70.2859 158.881 70.1819 158.473 69.9739C158.065 69.7579 157.741 69.4379 157.501 69.0139C157.269 68.5899 157.153 68.0739 157.153 67.4659V63.6139H158.233V67.3219C158.233 67.9699 158.397 68.4699 158.725 68.8219C159.053 69.1659 159.501 69.3379 160.069 69.3379C160.653 69.3379 161.113 69.1579 161.449 68.7979C161.785 68.4379 161.953 67.9139 161.953 67.2259V63.6139H163.045ZM167.217 70.2979C166.713 70.2979 166.261 70.2139 165.861 70.0459C165.461 69.8699 165.145 69.6299 164.913 69.3259C164.681 69.0139 164.553 68.6579 164.529 68.2579H165.657C165.689 68.5859 165.841 68.8539 166.113 69.0619C166.393 69.2699 166.757 69.3739 167.205 69.3739C167.621 69.3739 167.949 69.2819 168.189 69.0979C168.429 68.9139 168.549 68.6819 168.549 68.4019C168.549 68.1139 168.421 67.9019 168.165 67.7659C167.909 67.6219 167.513 67.4819 166.977 67.3459C166.489 67.2179 166.089 67.0899 165.777 66.9619C165.473 66.8259 165.209 66.6299 164.985 66.3739C164.769 66.1099 164.661 65.7659 164.661 65.3419C164.661 65.0059 164.761 64.6979 164.961 64.4179C165.161 64.1379 165.445 63.9179 165.813 63.7579C166.181 63.5899 166.601 63.5059 167.073 63.5059C167.801 63.5059 168.389 63.6899 168.837 64.0579C169.285 64.4259 169.525 64.9299 169.557 65.5699H168.465C168.441 65.2259 168.301 64.9499 168.045 64.7419C167.797 64.5339 167.461 64.4299 167.037 64.4299C166.645 64.4299 166.333 64.5139 166.101 64.6819C165.869 64.8499 165.753 65.0699 165.753 65.3419C165.753 65.5579 165.821 65.7379 165.957 65.8819C166.101 66.0179 166.277 66.1299 166.485 66.2179C166.701 66.2979 166.997 66.3899 167.373 66.4939C167.845 66.6219 168.229 66.7499 168.525 66.8779C168.821 66.9979 169.073 67.1819 169.281 67.4299C169.497 67.6779 169.609 68.0019 169.617 68.4019C169.617 68.7619 169.517 69.0859 169.317 69.3739C169.117 69.6619 168.833 69.8899 168.465 70.0579C168.105 70.2179 167.689 70.2979 167.217 70.2979ZM172.49 64.5139V68.3899C172.49 68.7099 172.558 68.9379 172.694 69.0739C172.83 69.2019 173.066 69.2659 173.402 69.2659H174.206V70.1899H173.222C172.614 70.1899 172.158 70.0499 171.854 69.7699C171.55 69.4899 171.398 69.0299 171.398 68.3899V64.5139H170.546V63.6139H171.398V61.9579H172.49V63.6139H174.206V64.5139H172.49ZM176.093 62.5459C175.885 62.5459 175.709 62.4739 175.565 62.3299C175.421 62.1859 175.349 62.0099 175.349 61.8019C175.349 61.5939 175.421 61.4179 175.565 61.2739C175.709 61.1299 175.885 61.0579 176.093 61.0579C176.293 61.0579 176.461 61.1299 176.597 61.2739C176.741 61.4179 176.813 61.5939 176.813 61.8019C176.813 62.0099 176.741 62.1859 176.597 62.3299C176.461 62.4739 176.293 62.5459 176.093 62.5459ZM176.621 63.6139V70.1899H175.529V63.6139H176.621ZM181.687 63.4939C182.487 63.4939 183.135 63.7379 183.631 64.2259C184.127 64.7059 184.375 65.4019 184.375 66.3139V70.1899H183.295V66.4699C183.295 65.8139 183.131 65.3139 182.803 64.9699C182.475 64.6179 182.027 64.4419 181.459 64.4419C180.883 64.4419 180.423 64.6219 180.079 64.9819C179.743 65.3419 179.575 65.8659 179.575 66.5539V70.1899H178.483V63.6139H179.575V64.5499C179.791 64.2139 180.083 63.9539 180.451 63.7699C180.827 63.5859 181.239 63.4939 181.687 63.4939ZM185.75 66.8779C185.75 66.2059 185.886 65.6179 186.158 65.1139C186.43 64.6019 186.802 64.2059 187.274 63.9259C187.754 63.6459 188.29 63.5059 188.882 63.5059C189.394 63.5059 189.87 63.6259 190.31 63.8659C190.75 64.0979 191.086 64.4059 191.318 64.7899V61.3099H192.422V70.1899H191.318V68.9539C191.102 69.3459 190.782 69.6699 190.358 69.9259C189.934 70.1739 189.438 70.2979 188.87 70.2979C188.286 70.2979 187.754 70.1539 187.274 69.8659C186.802 69.5779 186.43 69.1739 186.158 68.6539C185.886 68.1339 185.75 67.5419 185.75 66.8779ZM191.318 66.8899C191.318 66.3939 191.218 65.9619 191.018 65.5939C190.818 65.2259 190.546 64.9459 190.202 64.7539C189.866 64.5539 189.494 64.4539 189.086 64.4539C188.678 64.4539 188.306 64.5499 187.97 64.7419C187.634 64.9339 187.366 65.2139 187.166 65.5819C186.966 65.9499 186.866 66.3819 186.866 66.8779C186.866 67.3819 186.966 67.8219 187.166 68.1979C187.366 68.5659 187.634 68.8499 187.97 69.0499C188.306 69.2419 188.678 69.3379 189.086 69.3379C189.494 69.3379 189.866 69.2419 190.202 69.0499C190.546 68.8499 190.818 68.5659 191.018 68.1979C191.218 67.8219 191.318 67.3859 191.318 66.8899ZM200.268 66.6499C200.268 66.8579 200.256 67.0779 200.232 67.3099H194.976C195.016 67.9579 195.236 68.4659 195.636 68.8339C196.044 69.1939 196.536 69.3739 197.112 69.3739C197.584 69.3739 197.976 69.2659 198.288 69.0499C198.608 68.8259 198.832 68.5299 198.96 68.1619H200.136C199.96 68.7939 199.608 69.3099 199.08 69.7099C198.552 70.1019 197.896 70.2979 197.112 70.2979C196.488 70.2979 195.928 70.1579 195.432 69.8779C194.944 69.5979 194.56 69.2019 194.28 68.6899C194 68.1699 193.86 67.5699 193.86 66.8899C193.86 66.2099 193.996 65.6139 194.268 65.1019C194.54 64.5899 194.92 64.1979 195.408 63.9259C195.904 63.6459 196.472 63.5059 197.112 63.5059C197.736 63.5059 198.288 63.6419 198.768 63.9139C199.248 64.1859 199.616 64.5619 199.872 65.0419C200.136 65.5139 200.268 66.0499 200.268 66.6499ZM199.14 66.4219C199.14 66.0059 199.048 65.6499 198.864 65.3539C198.68 65.0499 198.428 64.8219 198.108 64.6699C197.796 64.5099 197.448 64.4299 197.064 64.4299C196.512 64.4299 196.04 64.6059 195.648 64.9579C195.264 65.3099 195.044 65.7979 194.988 66.4219H199.14ZM205.141 70.1899L203.581 67.7419L202.081 70.1899H200.941L203.065 66.9259L200.941 63.6139H202.177L203.737 66.0499L205.225 63.6139H206.365L204.253 66.8659L206.377 70.1899H205.141Z" fill="white"/>
<mask id="mask0_15_703" style="mask-type:alpha" maskUnits="userSpaceOnUse" x="209" y="60" width="12" height="12">
<g clip-path="url(#clip5_15_703)">
<g clip-path="url(#clip6_15_703)">
<path d="M215.25 60.8774C216.526 60.8774 217.75 61.3845 218.653 62.287C219.555 63.1895 220.062 64.4136 220.062 65.6899C220.062 66.9663 219.555 68.1904 218.653 69.0929C217.75 69.9954 216.526 70.5024 215.25 70.5024C213.974 70.5024 212.75 69.9954 211.847 69.0929C210.945 68.1904 210.438 66.9663 210.438 65.6899C210.438 64.4136 210.945 63.1895 211.847 62.287C212.75 61.3845 213.974 60.8774 215.25 60.8774ZM215.25 71.1899C216.709 71.1899 218.108 70.6105 219.139 69.579C220.171 68.5476 220.75 67.1486 220.75 65.6899C220.75 64.2313 220.171 62.8323 219.139 61.8009C218.108 60.7694 216.709 60.1899 215.25 60.1899C213.791 60.1899 212.392 60.7694 211.361 61.8009C210.329 62.8323 209.75 64.2313 209.75 65.6899C209.75 67.1486 210.329 68.5476 211.361 69.579C212.392 70.6105 213.791 71.1899 215.25 71.1899ZM214.219 67.7524C214.03 67.7524 213.875 67.9071 213.875 68.0962C213.875 68.2853 214.03 68.4399 214.219 68.4399H216.281C216.47 68.4399 216.625 68.2853 216.625 68.0962C216.625 67.9071 216.47 67.7524 216.281 67.7524H215.594V65.3462C215.594 65.1571 215.439 65.0024 215.25 65.0024H214.391C214.202 65.0024 214.047 65.1571 214.047 65.3462C214.047 65.5353 214.202 65.6899 214.391 65.6899H214.906V67.7524H214.219ZM215.25 64.1431C215.387 64.1431 215.518 64.0887 215.615 63.992C215.711 63.8953 215.766 63.7642 215.766 63.6274C215.766 63.4907 215.711 63.3595 215.615 63.2628C215.518 63.1661 215.387 63.1118 215.25 63.1118C215.113 63.1118 214.982 63.1661 214.885 63.2628C214.789 63.3595 214.734 63.4907 214.734 63.6274C214.734 63.7642 214.789 63.8953 214.885 63.992C214.982 64.0887 215.113 64.1431 215.25 64.1431Z" fill="black"/>
</g>
</g>
</mask>
<g mask="url(#mask0_15_703)">
<rect x="209.75" y="60.1899" width="11" height="11" fill="white"/>
</g>
<defs>
<clipPath id="clip0_15_703">
<rect width="18" height="18" fill="white" transform="translate(17.4004 55)"/>
</clipPath>
<clipPath id="clip1_15_703">
<rect width="18" height="18" fill="white" transform="translate(17.4004 55)"/>
</clipPath>
<clipPath id="clip2_15_703">
<rect width="18" height="18" fill="white" transform="translate(17.4004 55)"/>
</clipPath>
<clipPath id="clip3_15_703">
<rect width="40" height="40" fill="white" transform="translate(20.5 10)"/>
</clipPath>
<clipPath id="clip4_15_703">
<rect width="29.9424" height="40" fill="white" transform="translate(25.5293 10)"/>
</clipPath>
<clipPath id="clip5_15_703">
<rect width="11" height="11" fill="white" transform="translate(209.75 60.1899)"/>
</clipPath>
<clipPath id="clip6_15_703">
<rect width="11" height="11" fill="white" transform="translate(209.75 60.1899)"/>
</clipPath>
</defs>
</svg>
