<svg width="25" height="25" viewBox="0 0 25 25" fill="none" xmlns="http://www.w3.org/2000/svg">
<path d="M8.39748 3.59412C8.23717 3.3157 8.65988 3.07161 8.82038 3.34998L10.1851 5.7137C10.2525 5.8304 10.2125 5.97981 10.0959 6.04724C9.97995 6.11374 9.83024 6.07576 9.76237 5.95784L8.39748 3.59412ZM5.63878 6.53206L8.00202 7.89685C8.11813 7.9634 8.26784 7.92532 8.33551 7.80745C8.40294 7.69031 8.36295 7.54133 8.24616 7.4739L5.88293 6.1092C5.6046 5.94871 5.36027 6.37151 5.63878 6.53206ZM12.7443 5.15847V2.42952C12.7443 2.10803 12.256 2.10823 12.256 2.42952V5.15847C12.256 5.48001 12.7443 5.4802 12.7443 5.15847ZM16.8761 7.92952C16.9177 7.92952 16.9596 7.91882 16.9982 7.89685L19.3621 6.53206C19.6402 6.37151 19.3963 5.94851 19.1177 6.10925L16.7541 7.47395C16.5374 7.59895 16.6294 7.92952 16.8761 7.92952ZM7.33712 10.3098L5.60963 9.31272C5.33498 9.15422 4.97843 9.24861 4.81935 9.52429L1.7882 14.7752C1.62897 15.0511 1.72379 15.406 1.99967 15.5653L3.72716 16.5629C4.00207 16.7217 4.35822 16.6267 4.51745 16.351L7.54909 11.0999C7.70758 10.8253 7.61217 10.4685 7.33712 10.3098ZM15.0266 6.07991C15.1105 6.07991 15.193 6.03596 15.238 5.95784L16.6027 3.59407C16.7634 3.31589 16.3407 3.07146 16.1798 3.34993L14.8151 5.71365C14.7205 5.87756 14.8406 6.07991 15.0266 6.07991ZM11.664 21.0602L11.2143 21.6999C10.6809 22.461 11.8275 23.2643 12.3604 22.5062L12.8101 21.8666C13.3432 21.1082 12.1978 20.3011 11.664 21.0602ZM13.2012 11.621C12.2574 11.4132 11.6998 11.4914 10.9539 12.1034C10.6079 12.3873 10.2148 12.7819 9.89298 13.0988L9.3839 13.5983L9.28405 15.6974C9.27755 15.8343 9.29435 16.0179 9.42204 16.0982C9.64601 16.2388 10.0826 16.0528 10.2842 15.9439C10.711 15.7134 11.0255 14.8288 11.2785 14.3514C11.2986 14.3135 11.331 14.2831 11.3699 14.2651C12.0987 13.9287 12.8642 13.4814 13.6585 13.9413L18.3968 16.6845L19.8046 15.9654L17.2485 11.5371C15.8746 11.9479 14.5873 11.9262 13.2012 11.621ZM18.2911 17.0794L13.4606 14.283C12.8548 13.9323 12.197 14.31 11.6109 14.5884C11.4847 14.676 11.1362 15.932 10.4714 16.2911C10.1167 16.4827 9.58903 16.6691 9.21154 16.4319C8.95241 16.269 8.87599 15.9693 8.88981 15.6788L8.99337 13.5015C8.99577 13.4514 9.0173 13.4039 9.05329 13.3689L10.0712 12.3721L7.74918 11.5426L5.15905 16.0285L6.74279 18.006L7.28712 17.2329C7.6674 16.6927 8.3153 16.6264 8.80832 16.9728C9.04284 17.1376 9.16203 17.3248 9.25573 17.585L9.30744 17.5394C10.062 16.8745 11.254 17.6087 11.1063 18.5394L11.0967 18.5992L11.157 18.5934C11.9828 18.5138 12.7685 19.4347 12.2066 20.2881L12.1607 20.3577L12.244 20.3608C12.9926 20.3877 13.6131 21.1797 13.228 21.9362L13.208 21.9757L14.3698 22.6518C15.171 23.1179 15.8723 21.9094 15.0803 21.4441L13.7744 20.6836C13.5501 20.553 13.7492 20.2125 13.9728 20.3427L15.6813 21.3374C16.4822 21.8034 17.1844 20.5947 16.3917 20.1297L14.7919 19.1983C14.5681 19.068 14.7654 18.7265 14.9902 18.8573L17.0963 20.0835C17.898 20.5511 18.6039 19.3391 17.8016 18.8721L17.3776 18.6255L15.8093 17.7124C15.5856 17.5821 15.7835 17.2406 16.0084 17.3716L17.5875 18.2909C18.3884 18.7571 19.0934 17.5439 18.2911 17.0794ZM23.212 14.7752L20.1808 9.52429C20.0215 9.24836 19.6652 9.15432 19.3908 9.31272L17.6633 10.3098C17.388 10.4687 17.293 10.8256 17.4514 11.0999L20.483 16.3509C20.6422 16.6265 20.998 16.7218 21.2731 16.5629L23.0006 15.5653C23.2765 15.406 23.3713 15.0511 23.212 14.7752ZM11.8602 20.0957C12.3937 19.3375 11.2476 18.5301 10.7141 19.2888L9.46027 21.072C8.92721 21.8302 10.0731 22.6367 10.6068 21.8778L11.3443 20.8287L11.8602 20.0957ZM8.75631 18.2656C9.28873 17.5095 8.1442 16.7003 7.60983 17.4596L6.71237 18.735C6.17912 19.4928 7.32404 20.301 7.85841 19.5414L8.75631 18.2656ZM9.4361 17.9845L8.18107 19.7688L7.915 20.1467C7.38048 20.9058 8.5278 21.7131 9.06149 20.9531L10.5823 18.791C11.116 18.0333 9.97033 17.225 9.4361 17.9845Z" fill="#FFC129"/>
</svg>
