<svg width="24" height="24" viewBox="0 0 24 24" fill="none" xmlns="http://www.w3.org/2000/svg">
<path d="M6.54853 5.49338C6.43894 5.34301 6.47198 5.13226 6.62236 5.02262L8.66592 3.53293C8.81625 3.42329 9.02705 3.45634 9.13669 3.60671C9.24628 3.75709 9.21323 3.96784 9.06286 4.07748L8.31333 4.62385L8.31347 4.62399L9.23602 5.88966C9.05602 6.0249 8.88131 6.16637 8.71144 6.31365L7.76883 5.02074L7.01934 5.56712C6.95948 5.61076 6.89002 5.6318 6.82116 5.6318C6.71709 5.63185 6.61448 5.58385 6.54853 5.49338ZM17.1982 1.45215H12.8381V2.39443H17.1982V1.45215ZM15.0181 3.95654C15.2732 3.95654 15.5268 3.96666 15.7795 3.98687V3.06863H14.2568V3.98635C14.508 3.96666 14.7621 3.95654 15.0181 3.95654ZM2.55623 10.2565H5.97984C6.06455 10.0275 6.15741 9.80274 6.25898 9.58229H2.55623C2.37047 9.58229 2.21934 9.73341 2.21934 9.91918C2.21934 10.1055 2.37047 10.2565 2.55623 10.2565ZM1.95469 12.2412H5.47983C5.51161 12.0141 5.55155 11.7894 5.59922 11.5675H1.95469C1.76892 11.5675 1.6178 11.7181 1.6178 11.9044C1.6178 12.0901 1.76892 12.2412 1.95469 12.2412ZM5.38547 13.5892C5.38547 13.5771 5.38547 13.5656 5.38598 13.5535H0.360328C0.174094 13.5535 0.0234375 13.7041 0.0234375 13.8904C0.0234375 14.0767 0.174047 14.2273 0.360328 14.2273H5.40623C5.39222 14.0161 5.38547 13.8029 5.38547 13.5892ZM5.58136 15.5382H1.95469C1.76892 15.5382 1.6178 15.6894 1.6178 15.8751C1.6178 16.0614 1.76892 16.2125 1.95469 16.2125H5.745C5.68242 15.9901 5.62805 15.7654 5.58136 15.5382ZM2.55623 17.5244C2.37047 17.5244 2.21934 17.6755 2.21934 17.8617C2.21934 18.0475 2.37047 18.1986 2.55623 18.1986H6.55495C6.43416 17.9782 6.32297 17.7534 6.2205 17.5244H2.55623ZM20.6319 8.81715L15.8276 12.9655C15.7054 13.0714 15.5249 13.0752 15.3978 12.9746L13.6225 11.5655L12.7341 11.5819L15.2496 15.6383L21.1194 9.55918L22.4688 8.16165L22.4847 8.14482L23.8615 6.71888L23.5064 6.33629L22.0953 7.55387L22.0703 7.57506L20.6569 8.79596L20.6319 8.81715ZM22.668 8.92496L21.7811 9.84362C22.4139 10.987 22.7475 12.2768 22.7475 13.5892C22.7475 17.8511 19.2801 21.3185 15.0181 21.3185C10.7562 21.3185 7.28883 17.8511 7.28883 13.5892C7.28883 9.32677 10.7562 5.85938 15.0181 5.85938C17.0452 5.85938 19.0053 6.66788 20.4466 8.08707L21.3793 7.28195C19.7031 5.59276 17.4046 4.63027 15.0181 4.63027C10.0786 4.63027 6.05972 8.64915 6.05972 13.5892C6.05972 13.6893 6.06117 13.7894 6.06502 13.8885V13.8909C6.2243 18.6913 10.1797 22.5476 15.0181 22.5476C19.9577 22.5476 23.9766 18.5287 23.9766 13.5892C23.9766 11.9308 23.5257 10.3268 22.668 8.92496ZM11.8395 11.0954C11.7817 11.2017 11.7856 11.3307 11.8491 11.4337L14.905 16.3612C14.9599 16.4497 15.0523 16.5075 15.1558 16.5185C15.1673 16.52 15.1793 16.5204 15.1914 16.5204C15.2824 16.5204 15.3699 16.4839 15.4339 16.4175L21.2887 10.3532C21.8037 11.3504 22.0737 12.4606 22.0737 13.5892C22.0737 17.4796 18.9085 20.6443 15.0181 20.6443C11.1277 20.6443 7.96252 17.4796 7.96252 13.5892C7.96252 9.69877 11.1277 6.53359 15.0181 6.53359C16.8502 6.53359 18.6226 7.25691 19.9345 8.52934L15.5985 12.273L13.9464 10.9625C13.8853 10.9134 13.8068 10.8884 13.7308 10.8894L12.1292 10.9192C12.0084 10.9216 11.8978 10.989 11.8395 11.0954ZM14.6813 8.23337C14.6813 8.41913 14.8319 8.57026 15.0182 8.57026C15.2045 8.57026 15.3551 8.41913 15.3551 8.23337V7.66693C15.3551 7.48116 15.2045 7.33004 15.0182 7.33004C14.8319 7.33004 14.6813 7.48116 14.6813 7.66693V8.23337ZM19.4875 16.5585L19.9788 16.8424C20.0317 16.8732 20.09 16.8877 20.1473 16.8877C20.2632 16.8877 20.3768 16.827 20.4389 16.7192C20.5323 16.558 20.4769 16.3521 20.3157 16.2587L19.8248 15.9752C19.6636 15.8819 19.4577 15.9372 19.3643 16.0984C19.2714 16.2596 19.3267 16.4656 19.4875 16.5585ZM14.6813 19.5124C14.6813 19.6981 14.8319 19.8493 15.0182 19.8493C15.2045 19.8493 15.3551 19.6981 15.3551 19.5124V18.9445C15.3551 18.7587 15.2045 18.6076 15.0182 18.6076C14.8319 18.6076 14.6813 18.7587 14.6813 18.9445V19.5124ZM10.6715 16.0984C10.5786 15.9372 10.3722 15.8819 10.2114 15.9752L9.72009 16.2587C9.55936 16.3521 9.504 16.558 9.59691 16.7192C9.65944 16.8271 9.77255 16.8877 9.88903 16.8877C9.94631 16.8877 10.0045 16.8732 10.0575 16.8424L10.5483 16.5585C10.7095 16.4656 10.7649 16.2592 10.6715 16.0984ZM10.5483 10.6194L10.0575 10.3355C9.89625 10.2426 9.69028 10.2975 9.59691 10.4587C9.504 10.6199 9.55936 10.8258 9.72009 10.9192L10.2114 11.2027C10.2644 11.2335 10.3226 11.2479 10.3794 11.2479C10.4959 11.2479 10.6095 11.1878 10.6715 11.0795C10.7649 10.9187 10.7095 10.7123 10.5483 10.6194Z" fill="#FFC129"/>
</svg>
